<svg preserveAspectRatio="none" overflow="visible" style="display: block;" width="17.5" height="20.5545" viewBox="0 0 17.5 20.5545" fill="none" xmlns="http://www.w3.org/2000/svg">
<g id="Database">
<path id="Fill" d="M8.75 0.5C4.19365 0.5 0.5 1.91215 0.5 3.65412V16.9014C0.5 18.6434 4.19365 20.0556 8.75 20.0556C13.3063 20.0556 17 18.6434 17 16.9014V3.65412C17 1.91215 13.3063 0.5 8.75 0.5Z" fill="#2F2936"/>
<ellipse id="Ellipse 435" cx="8.75" cy="3.65412" rx="8.25" ry="3.15412" stroke="#B589EC"/>
<path id="Ellipse 436" d="M17 16.9004C17 18.6424 13.3063 20.0545 8.75 20.0545C4.19365 20.0545 0.5 18.6424 0.5 16.9004" stroke="#B589EC"/>
<path id="Ellipse 437" d="M17 12.4857C17 14.2276 13.3063 15.6398 8.75 15.6398C4.19365 15.6398 0.5 14.2276 0.5 12.4857" stroke="#B589EC"/>
<path id="Ellipse 438" d="M17 8.07031C17 9.81229 13.3063 11.2244 8.75 11.2244C4.19365 11.2244 0.5 9.81229 0.5 8.07031" stroke="#B589EC"/>
<path id="Vector 29" d="M17 3.33871V17.0276" stroke="#B589EC"/>
<path id="Vector 30" d="M0.5 3.33871V17.0276" stroke="#B589EC"/>
</g>
</svg>
